<?xml version="1.0" encoding="utf-8"?>
<!-- Generator: Adobe Illustrator 21.0.0, SVG Export Plug-In . SVG Version: 6.00 Build 0)  -->
<svg version="1.1" id="Capa_1" xmlns="http://www.w3.org/2000/svg" xmlns:xlink="http://www.w3.org/1999/xlink" x="0px" y="0px"
	 viewBox="0 0 100 100" style="enable-background:new 0 0 100 100;" xml:space="preserve">
<style type="text/css">
	.st0{fill:#FFFFFF;}
</style>
<g>
	<g>
		<path class="st0" d="M92.9,25.1c-4.4-7.6-10.5-13.6-18.1-18.1C67.3,2.6,59,0.4,50,0.4c-9,0-17.3,2.2-24.9,6.7
			c-7.6,4.4-13.6,10.5-18.1,18.1C2.6,32.7,0.4,41,0.4,50c0,9,2.2,17.3,6.7,24.9c4.4,7.6,10.5,13.6,18.1,18.1
			c7.6,4.4,15.9,6.7,24.9,6.7s17.3-2.2,24.9-6.7c7.6-4.4,13.6-10.5,18.1-18.1c4.4-7.6,6.7-15.9,6.7-24.9
			C99.6,41,97.4,32.7,92.9,25.1z M80.4,67.6C77.3,73,73,77.3,67.6,80.4c-5.4,3.1-11.3,4.7-17.6,4.7c-6.4,0-12.2-1.6-17.6-4.7
			C27,77.3,22.7,73,19.6,67.6c-3.1-5.4-4.7-11.3-4.7-17.6c0-6.4,1.6-12.2,4.7-17.6c3.1-5.4,7.4-9.6,12.8-12.8
			c5.4-3.1,11.3-4.7,17.6-4.7c6.4,0,12.3,1.6,17.6,4.7c5.4,3.1,9.6,7.4,12.8,12.8c3.1,5.4,4.7,11.3,4.7,17.6
			C85.1,56.4,83.6,62.2,80.4,67.6z"/>
		<path class="st0" d="M33.5,75.8l33.1-16.5v-35L33.5,40.8L33.5,75.8L33.5,75.8z M41.7,45.9l16.5,8.3l-16.5,8.3V45.9L41.7,45.9z"/>
	</g>
</g>
</svg>
