<?xml version="1.0" encoding="utf-8"?>
<!-- Generator: Adobe Illustrator 21.0.0, SVG Export Plug-In . SVG Version: 6.00 Build 0)  -->
<svg version="1.1" id="Layer_1" xmlns="http://www.w3.org/2000/svg" xmlns:xlink="http://www.w3.org/1999/xlink" x="0px" y="0px"
	 viewBox="0 0 100 100" style="enable-background:new 0 0 100 100;" xml:space="preserve">
<style type="text/css">
	.st0{fill:#344233;}
</style>
<path class="st0" d="M99.8,46.7h-6.6C91.8,25.5,74.5,8.9,53.3,6.9V0.2h-6.6v6.6C25.5,8.9,8.9,25.5,6.9,46.7H0.2v6.6h6.6
	c1.3,21.2,18.6,37.8,39.8,39.8v6.6h6.6v-6.6c21.2-1.3,37.8-18.6,39.8-39.8h6.6V46.7z M53.3,82.5V66.6h-6.6v15.9
	c-15.9-1.3-27.9-13.3-29.2-29.2h15.9v-6.6H17.5c1.3-15.9,13.3-27.9,29.2-29.2v15.9h6.6V17.5c15.9,1.3,27.9,13.9,29.2,29.2H66.6v6.6
	h15.9C81.2,69.2,69.2,81.2,53.3,82.5z"/>
</svg>
