<?xml version="1.0" encoding="UTF-8"?>
<!DOCTYPE svg PUBLIC "-//W3C//DTD SVG 1.1//EN" "http://www.w3.org/Graphics/SVG/1.1/DTD/svg11.dtd">
<!-- Creator: CorelDRAW X5 -->
<svg xmlns="http://www.w3.org/2000/svg" xml:space="preserve" width="2048px" height="2048px" style="shape-rendering:geometricPrecision; text-rendering:geometricPrecision; image-rendering:optimizeQuality; fill-rule:evenodd; clip-rule:evenodd"
viewBox="0 0 2048 2048"
 xmlns:xlink="http://www.w3.org/1999/xlink">
 <defs>
  <style type="text/css">
   <![CDATA[
    .fil1 {fill:none}
    .fil0 {fill:#344233;fill-rule:nonzero}
   ]]>
  </style>
 </defs>
 <g id="Layer_x0020_1">
  <metadata id="CorelCorpID_0Corel-Layer"/>
  <path class="fil0" d="M808 945c71,-23 146,-36 221,-36 72,0 145,12 215,36 17,6 34,14 48,26 17,14 28,33 28,59l0 659c0,23 -9,42 -23,56 -14,14 -34,24 -55,29 -71,17 -142,29 -214,30 -73,1 -145,-7 -218,-31 -18,-6 -35,-14 -49,-26 -17,-15 -28,-34 -28,-59l0 -659c0,-25 11,-45 28,-59 14,-12 31,-20 49,-26z"/>
  <path class="fil0" d="M1025 778c27,0 51,11 68,28 17,17 28,41 28,68 0,27 -11,51 -28,68 -17,17 -41,28 -68,28 -27,0 -51,-11 -68,-28 -17,-17 -28,-41 -28,-68 0,-27 11,-51 28,-68 17,-17 41,-28 68,-28zm23 73c-6,-6 -14,-9 -23,-9 -9,0 -17,4 -23,9 -6,6 -9,14 -9,23 0,9 4,17 9,23 6,6 14,9 23,9 9,0 17,-4 23,-9 6,-6 9,-14 9,-23 0,-9 -4,-17 -9,-23z"/>
  <path class="fil0" d="M402 267l0 0 0 0c16,-16 37,-24 58,-24 21,0 42,8 58,24l48 47c16,16 24,37 25,58 0,21 -8,42 -24,58l0 0 0 0 0 0 0 0 -9 9 -2 0c-14,10 -30,15 -47,15 -21,0 -42,-8 -58,-24l0 0 0 0 0 0 -48 -47 0 0 0 0 0 0c-16,-16 -24,-37 -24,-58 0,-21 8,-42 24,-58l0 0 0 0zm45 45l0 0 0 0 0 0c-4,4 -5,8 -5,13 0,5 2,10 6,13l0 0 0 0 0 0 48 47 0 0 0 0 0 0c4,4 8,5 13,5 5,0 10,-2 13,-6l0 0 0 0 1 -1c3,-4 4,-8 4,-12 0,-5 -2,-10 -6,-13l-48 -47c-4,-4 -9,-5 -13,-5 -5,0 -10,2 -13,6l0 0z"/>
  <path class="fil0" d="M618 481l0 0 0 0c16,-16 37,-24 58,-24 21,0 42,8 58,24l48 47c16,16 24,37 25,58 0,21 -8,42 -24,58l0 0 0 0 0 0 0 0 -9 9 -2 0c-14,10 -30,15 -47,15 -21,0 -42,-8 -58,-24l0 0 0 0 0 0 -48 -47 0 0 0 0 0 0c-16,-16 -24,-37 -24,-58 0,-21 8,-42 24,-58l0 0 0 0zm45 45l0 0 0 0 0 0c-4,4 -5,8 -5,13 0,5 2,10 6,13l0 0 0 0 0 0 48 47 0 0 0 0 0 0c4,4 8,5 13,5 5,0 10,-2 13,-6l0 0 0 0 1 -1c3,-4 4,-8 4,-12 0,-5 -2,-10 -6,-13l-48 -47c-4,-4 -9,-5 -13,-5 -5,0 -10,2 -13,6l0 0z"/>
  <path class="fil0" d="M835 695l0 0 0 0c16,-16 37,-24 58,-24 21,0 42,8 58,24l48 47c16,16 24,37 25,58 0,21 -8,42 -24,58l0 0 0 0 0 0 0 0 -9 9 -2 0c-14,10 -30,15 -47,15 -21,0 -42,-8 -58,-24l0 0 0 0 0 0 -48 -47 0 0 0 0 0 0c-16,-16 -24,-37 -24,-58 0,-21 8,-42 24,-58l0 0 0 0zm45 45l0 0 0 0 0 0c-4,4 -5,8 -5,13 0,5 2,10 6,13l0 0 0 0 0 0 48 47 0 0 0 0 0 0c4,4 8,5 13,5 5,0 10,-2 13,-6l0 0 0 0 1 -1c3,-4 4,-8 4,-12 0,-5 -2,-10 -6,-13l-48 -47c-4,-4 -9,-5 -13,-5 -5,0 -10,2 -13,6l0 0z"/>
  <polygon class="fil0" points="567,386 663,481 619,526 522,431 "/>
  <polygon class="fil0" points="784,599 880,694 835,740 739,645 "/>
  <path class="fil0" d="M1601 313l0 0 0 0c-4,-4 -8,-5 -13,-6 -5,0 -10,2 -13,5l-48 47c-4,4 -5,8 -6,13 0,4 1,9 4,12l1 1 0 0 0 0c4,4 8,5 13,6 5,0 10,-2 13,-5l0 0 0 0 0 0 48 -47 0 0 0 0 0 0c4,-4 5,-8 6,-13 0,-5 -2,-10 -5,-13l0 0 0 0zm45 -45l0 0 0 0 0 0 0 0c16,16 24,37 24,58 0,21 -8,42 -24,58l0 0 0 0 0 0 -48 47 0 0 0 0 0 0c-16,16 -37,24 -58,24 -17,0 -33,-5 -47,-15l-2 0 -9 -9 0 0 0 0 0 0 0 0c-16,-16 -24,-37 -24,-58 0,-21 8,-42 25,-58l48 -47c16,-16 37,-24 58,-24 21,0 42,8 58,24z"/>
  <path class="fil0" d="M1384 526l0 0 0 0c-4,-4 -8,-5 -13,-6 -5,0 -10,2 -13,5l-48 47c-4,4 -5,8 -6,13 0,4 1,9 4,12l1 1 0 0 0 0c4,4 8,5 13,6 5,0 10,-2 13,-5l0 0 0 0 0 0 48 -47 0 0 0 0 0 0c4,-4 5,-8 6,-13 0,-5 -2,-10 -5,-13l0 0 0 0zm45 -45l0 0 0 0 0 0 0 0c16,16 24,37 24,58 0,21 -8,42 -24,58l0 0 0 0 0 0 -48 47 0 0 0 0 0 0c-16,16 -37,24 -58,24 -17,0 -33,-5 -47,-15l-2 0 -9 -9 0 0 0 0 0 0 0 0c-16,-16 -24,-37 -24,-58 0,-21 8,-42 25,-58l48 -47c16,-16 37,-24 58,-24 21,0 42,8 58,24z"/>
  <path class="fil0" d="M1168 740l0 0 0 0c-4,-4 -8,-5 -13,-6 -5,0 -10,2 -13,5l-48 47c-4,4 -5,8 -6,13 0,4 1,9 4,12l1 1 0 0 0 0c4,4 8,5 13,6 5,0 10,-2 13,-5l0 0 0 0 0 0 48 -47 0 0 0 0 0 0c4,-4 5,-8 6,-13 0,-5 -2,-10 -5,-13l0 0 0 0zm45 -45l0 0 0 0 0 0 0 0c16,16 24,37 24,58 0,21 -8,42 -24,58l0 0 0 0 0 0 -48 47 0 0 0 0 0 0c-16,16 -37,24 -58,24 -17,0 -33,-5 -47,-15l-2 0 -9 -9 0 0 0 0 0 0 0 0c-16,-16 -24,-37 -24,-58 0,-21 8,-42 25,-58l48 -47c16,-16 37,-24 58,-24 21,0 42,8 58,24z"/>
  <polygon class="fil0" points="1526,431 1429,526 1385,481 1481,386 "/>
  <polygon class="fil0" points="1309,645 1213,740 1168,694 1264,599 "/>
  <rect class="fil1" width="2048" height="2048"/>
 </g>
</svg>
