<?xml version="1.0" encoding="UTF-8"?>
<svg width="40px" height="41px" viewBox="0 0 40 41" version="1.1" xmlns="http://www.w3.org/2000/svg" xmlns:xlink="http://www.w3.org/1999/xlink">
    <!-- Generator: Sketch 49.2 (51160) - http://www.bohemiancoding.com/sketch -->
    <title>Fill 1</title>
    <desc>Created with Sketch.</desc>
    <defs>
        <filter x="-12.3%" y="-2.6%" width="124.6%" height="106.8%" filterUnits="objectBoundingBox" id="filter-1">
            <feOffset dx="0" dy="2" in="SourceAlpha" result="shadowOffsetOuter1"></feOffset>
            <feGaussianBlur stdDeviation="2.5" in="shadowOffsetOuter1" result="shadowBlurOuter1"></feGaussianBlur>
            <feColorMatrix values="0 0 0 0 0   0 0 0 0 0   0 0 0 0 0  0 0 0 0.145210598 0" type="matrix" in="shadowBlurOuter1" result="shadowMatrixOuter1"></feColorMatrix>
            <feMerge>
                <feMergeNode in="shadowMatrixOuter1"></feMergeNode>
                <feMergeNode in="SourceGraphic"></feMergeNode>
            </feMerge>
        </filter>
    </defs>
    <g id="Welcome" stroke="none" stroke-width="1" fill="none" fill-rule="evenodd">
        <g id="Home-Pseudostates-Copy-2" transform="translate(-14.000000, -564.000000)" fill="#344233">
            <g id="Group-6" filter="url(#filter-1)" transform="translate(-1.000000, 429.000000)">
                <g id="Group-5" transform="translate(20.000000, 28.000000)">
                    <path d="M26.2497253,110.275916 L3.74990845,110.275916 C1.68199862,110.275916 0,111.957915 0,114.025825 L0,136.525642 C0,138.593918 1.68199862,140.275916 3.74990845,140.275916 L15,140.275916 L15,129.963393 L11.2500916,129.963393 L11.2500916,125.275916 L15,125.275916 L15,121.526008 C15,118.418943 17.5179809,115.900962 20.6250458,115.900962 L24.3749542,115.900962 L24.3749542,120.588439 L22.4998169,120.588439 C21.4649831,120.588439 20.6250458,120.490881 20.6250458,121.526008 L20.6250458,125.275916 L25.3125229,125.275916 L23.4373856,129.963393 L20.6250458,129.963393 L20.6250458,140.275916 L26.2497253,140.275916 C28.3180014,140.275916 30,138.593918 30,136.525642 L30,114.025825 C30,111.957915 28.3180014,110.275916 26.2497253,110.275916 Z" id="Fill-1"></path>
                </g>
            </g>
        </g>
    </g>
</svg>