<?xml version="1.0" encoding="UTF-8"?>
<svg width="40px" height="41px" viewBox="0 0 40 41" version="1.1" xmlns="http://www.w3.org/2000/svg" xmlns:xlink="http://www.w3.org/1999/xlink">
    <!-- Generator: Sketch 49.2 (51160) - http://www.bohemiancoding.com/sketch -->
    <title>Group</title>
    <desc>Created with Sketch.</desc>
    <defs>
        <filter x="-12.3%" y="-2.6%" width="124.6%" height="106.8%" filterUnits="objectBoundingBox" id="filter-1">
            <feOffset dx="0" dy="2" in="SourceAlpha" result="shadowOffsetOuter1"></feOffset>
            <feGaussianBlur stdDeviation="2.5" in="shadowOffsetOuter1" result="shadowBlurOuter1"></feGaussianBlur>
            <feColorMatrix values="0 0 0 0 0   0 0 0 0 0   0 0 0 0 0  0 0 0 0.145210598 0" type="matrix" in="shadowBlurOuter1" result="shadowMatrixOuter1"></feColorMatrix>
            <feMerge>
                <feMergeNode in="shadowMatrixOuter1"></feMergeNode>
                <feMergeNode in="SourceGraphic"></feMergeNode>
            </feMerge>
        </filter>
    </defs>
    <g id="Welcome" stroke="none" stroke-width="1" fill="none" fill-rule="evenodd">
        <g id="Home-Pseudostates-Copy-2" transform="translate(-14.000000, -504.000000)" fill="#344233">
            <g id="Group-6" filter="url(#filter-1)" transform="translate(-1.000000, 429.000000)">
                <g id="Group-5" transform="translate(20.000000, 28.000000)">
                    <g id="Group" transform="translate(0.000000, 50.349130)">
                        <g id="Group-3">
                            <path d="M20.6050244,0.0292682927 L9.36585366,0.0292682927 C4.19414634,0.0292682927 0,4.22341463 0,9.39512195 L0,20.6342927 C0,25.8059268 4.19414634,30.0001463 9.36585366,30.0001463 L20.6050244,30.0001463 C25.7766585,30.0001463 29.970878,25.8059268 29.970878,20.6342927 L29.970878,9.39512195 C29.970878,4.22341463 25.7766585,0.0292682927 20.6050244,0.0292682927 Z M27.1609024,20.6342927 C27.1609024,24.2493659 24.2200976,27.1901707 20.6050244,27.1901707 L9.36585366,27.1901707 C5.75078049,27.1901707 2.80960976,24.2493659 2.80960976,20.6342927 L2.80960976,9.39512195 C2.80960976,5.78004878 5.75078049,2.83887805 9.36585366,2.83887805 L20.6050244,2.83887805 C24.2200976,2.83887805 27.1609024,5.78004878 27.1609024,9.39512195 L27.1609024,20.6342927 Z" id="Fill-1"></path>
                        </g>
                        <path d="M14.985439,7.52180488 C10.847561,7.52180488 7.49253659,10.8768293 7.49253659,15.0147073 C7.49253659,19.1525854 10.847561,22.5072439 14.985439,22.5072439 C19.1233171,22.5072439 22.4779756,19.1525854 22.4779756,15.0147073 C22.4779756,10.8768293 19.1233171,7.52180488 14.985439,7.52180488 Z M14.985439,19.6976341 C12.404122,19.6976341 10.3025122,17.5959512 10.3025122,15.0147073 C10.3025122,12.4314146 12.404122,10.3317805 14.985439,10.3317805 C17.5666829,10.3317805 19.6683659,12.4314146 19.6683659,15.0147073 C19.6683659,17.5959512 17.5666829,19.6976341 14.985439,19.6976341 Z" id="Fill-4"></path>
                        <path d="M24.0382683,6.95992683 C24.0382683,7.51126829 23.5912683,7.95826829 23.0399268,7.95826829 C22.4885854,7.95826829 22.0415122,7.51126829 22.0415122,6.95992683 C22.0415122,6.40858537 22.4885854,5.9615122 23.0399268,5.9615122 C23.5912683,5.9615122 24.0382683,6.40858537 24.0382683,6.95992683 Z" id="Fill-5"></path>
                    </g>
                </g>
            </g>
        </g>
    </g>
</svg>