<?xml version="1.0" encoding="UTF-8"?>
<svg width="30px" height="21px" viewBox="0 0 30 21" version="1.1" xmlns="http://www.w3.org/2000/svg" xmlns:xlink="http://www.w3.org/1999/xlink">
    <!-- Generator: Sketch 49.2 (51160) - http://www.bohemiancoding.com/sketch -->
    <title>Fill 1</title>
    <desc>Created with Sketch.</desc>
    <defs></defs>
    <g id="Welcome" stroke="none" stroke-width="1" fill="none" fill-rule="evenodd">
        <g id="Home-Pseudostates-Copy-2" transform="translate(-1053.000000, -1993.000000)" fill="#344233">
            <g id="Group-11-Copy" transform="translate(3.000000, 1956.000000)">
                <g id="Group-8" transform="translate(1050.000000, 31.000000)">
                    <path d="M15.0390199,18.0321498 L15.044356,18.0321498 C15.2711386,18.0321498 15.4945861,17.966783 15.6746782,17.8473887 L15.7240367,17.8160393 C15.7347089,17.8080352 15.744714,17.8026992 15.7580541,17.7946951 L16.3283456,17.3204527 L29.9686506,6.06469974 C29.9426373,6.0260133 29.8926118,6 29.8405852,6 L0.158747804,6 C0.122729395,6 0.0887120084,6.01267314 0.0600306823,6.03601841 L14.3326589,17.7973631 C14.512751,17.9461058 14.7682149,18.0321498 15.0390199,18.0321498 Z M0,7.59414812 L0,24.2800098 L10.2238922,16.0204549 L0,7.59414812 Z M19.7887809,16.0778176 L30,24.2853458 L30,7.64884274 L19.7887809,16.0778176 Z M16.542455,18.75652 C16.1335794,19.0900238 15.6019743,19.2747849 15.041688,19.2747849 C14.4814016,19.2747849 13.9497966,19.0926918 13.5435889,18.759188 L11.2010583,16.8282011 L0,25.8748249 L0,25.9035062 C0,25.9895502 0.0727038264,26.062254 0.161415835,26.062254 L29.8432532,26.062254 C29.9266292,26.062254 30,25.9895502 30,25.9035062 L30,25.8774929 L18.8089468,16.8855637 L16.542455,18.75652 Z" id="Fill-1"></path>
                </g>
            </g>
        </g>
    </g>
</svg>