<?xml version="1.0" encoding="UTF-8"?>
<svg width="19px" height="19px" viewBox="0 0 19 19" version="1.1" xmlns="http://www.w3.org/2000/svg" xmlns:xlink="http://www.w3.org/1999/xlink">
    <!-- Generator: Sketch 49.2 (51160) - http://www.bohemiancoding.com/sketch -->
    <title>Fill 1</title>
    <desc>Created with Sketch.</desc>
    <defs></defs>
    <g id="Welcome" stroke="none" stroke-width="1" fill="none" fill-rule="evenodd">
        <g id="Home-Pseudostates-Copy-2" transform="translate(-655.000000, -1993.000000)" fill="#344233">
            <g id="Group-11-Copy" transform="translate(3.000000, 1956.000000)">
                <g id="Group-9" transform="translate(652.000000, 37.000000)">
                    <path d="M19.0034256,14.9947661 C19.0435483,15.3032089 18.9496136,15.5717346 18.7215806,15.7997676 L16.044669,18.4564534 C15.92389,18.5906751 15.766236,18.7047122 15.5717481,18.7986469 C15.3771369,18.8925815 15.1858555,18.952971 14.9981507,18.9797742 C14.9846668,18.9797742 14.9443386,18.9831452 14.8772483,18.9898871 C14.8102814,18.996629 14.7230886,19 14.615629,19 C14.3607927,19 13.9480969,18.956342 13.3778704,18.8691492 C12.8074794,18.7819565 12.109732,18.5672428 11.2846692,18.2250494 C10.459442,17.8828148 9.52354862,17.3696068 8.47686581,16.6853844 C7.43034744,16.0011208 6.31653321,15.061692 5.13579312,13.8676325 C4.1965288,12.9416876 3.41833055,12.0560709 2.80107505,11.2107823 C2.18377844,10.3654526 1.68742526,9.58388344 1.31164554,8.86595137 C0.935906925,8.14814262 0.654061855,7.49730085 0.466356984,6.91354939 C0.278446568,6.33000348 0.15096676,5.82674395 0.0838353426,5.40409967 C0.016703925,4.98141429 -0.010099311,4.64933371 0.0033845255,4.40781682 C0.016703925,4.16629993 0.0234458432,4.0320782 0.0234458432,4.00523386 C0.0502901884,3.81736455 0.110638579,3.62628872 0.204614341,3.43163639 C0.298548995,3.23702516 0.412544966,3.07949449 0.546807802,2.95871549 L3.22371933,0.281803961 C3.41158864,0.0939346536 3.62630229,0 3.86781918,0 C4.04220465,0 4.1965288,0.0502355128 4.3306272,0.150912085 C4.46484892,0.251629766 4.578886,0.375738614 4.67282066,0.523320849 L6.82641134,4.60904663 C6.94714922,4.82371918 6.98073549,5.05865858 6.92708791,5.31353598 C6.87344033,5.56853671 6.75944435,5.78320925 6.58489445,5.95759472 L5.59872447,6.9437647 C5.57192123,6.97073237 5.54832452,7.01426708 5.5282632,7.07461547 C5.50816077,7.13500497 5.49804789,7.18544602 5.49804789,7.22556866 C5.55169548,7.50741373 5.67243337,7.82938144 5.86034378,8.19163621 C6.02140985,8.51376836 6.26966866,8.90623844 6.6051202,9.3692109 C6.94057174,9.83201892 7.4168636,10.3654526 8.03416021,10.9692654 C8.63793188,11.5865209 9.17461324,12.0661837 9.64432762,12.4083772 C10.1138364,12.7504473 10.5063065,13.0020771 10.8216968,13.1631432 C11.1369225,13.3240448 11.3786039,13.4213504 11.5462474,13.4548956 L11.7977127,13.5051722 C11.8245571,13.5051722 11.8682151,13.4950593 11.9286046,13.474998 C11.9889941,13.4548956 12.0326522,13.4314633 12.0594965,13.4044956 L13.2066914,12.2371983 C13.4483728,12.0225257 13.7300123,11.9150661 14.05198,11.9150661 C14.2801775,11.9150661 14.4613049,11.9553943 14.5954033,12.0358451 L14.615629,12.0358451 L18.500125,14.3303994 C18.7819701,14.5049493 18.9496136,14.7262405 19.0034256,14.9947661 Z" id="Fill-1"></path>
                </g>
            </g>
        </g>
    </g>
</svg>