<svg xmlns="http://www.w3.org/2000/svg" viewBox="0 0 181.05 173.76"><defs><style>.cls-1{fill:#fff;}</style></defs><title>Asset 1</title><g id="Layer_2" data-name="Layer 2"><g id="Layer_1-2" data-name="Layer 1"><path class="cls-1" d="M80.53,98.18l12.71-9.85,3.67-2.84,2,4.19,13.66,28.64,1.83,3.83-4.05,1.33-15.28,5-3.54,1.16-1.17-3.56c-1.14-3.47-1.94-6.56-2.64-9.26-1.58-6.12-2.56-9.88-6.85-12.51l-4.62-2.83Z"/><path class="cls-1" d="M4.15,137,36,112.37l.82-.48c3.63-1.54-.22.1,2.34-1,6.09-2.58,9.15-3.87,11.41-5.56s4.1-4.05,7.83-8.84l1.25-1.61.54-.74c1.11-1.53,1.67-2.3,3.77-2.3s2.66.78,3.83,2.35l.53.7,10.75,13.88,2.75,3.55-4,2.05c-11.38,5.82-31.5,28.2-45.92,44.24-3.52,3.91-6.68,7.43-9.9,10.87l-4,4.26-2.2-5.41A74.7,74.7,0,0,1,13,159.45c-1.71-6.41-3.46-13-8.61-16.32L0,140.26Z"/><path class="cls-1" d="M61.7,92.45l44.55-34.52,2.95-2.28,2.29,3c3.34,4.32,5.66,8.38,4.26,14-1.21,4.89-5.53,10.51-15.21,18l-25.17,19.5Z"/><polygon class="cls-1" points="91.34 69.48 176.48 3.51 181.05 9.43 95.9 75.39 91.34 69.48"/><polygon class="cls-1" points="53.38 78.7 86.61 52.95 91.26 46.52 92.72 44.5 94.25 46.47 101.95 56.41 103.47 58.36 101.16 59.28 93.42 62.37 60.49 87.89 59.02 89.03 57.87 87.55 53.04 81.32 51.9 79.85 53.38 78.7"/><polygon class="cls-1" points="168.46 2.4 172.63 7.78 166.72 12.35 162.54 6.96 168.46 2.4"/><polygon class="cls-1" points="164.24 0 168.41 5.38 165.45 7.67 161.28 2.28 164.24 0"/></g></g></svg>