<?xml version="1.0" encoding="utf-8"?>
<!-- Generator: Adobe Illustrator 21.0.0, SVG Export Plug-In . SVG Version: 6.00 Build 0)  -->
<svg version="1.1" id="Capa_1" xmlns="http://www.w3.org/2000/svg" xmlns:xlink="http://www.w3.org/1999/xlink" x="0px" y="0px"
	 viewBox="0 0 100 100" style="enable-background:new 0 0 100 100;" xml:space="preserve">
<style type="text/css">
	.st0{fill:#FFFFFF;}
</style>
<g>
	<g>
		<path class="st0" d="M76.8,19.3c5.2,0,9.5-4.3,9.5-9.5S82,0.2,76.8,0.2s-9.5,4.3-9.5,9.5S71.5,19.3,76.8,19.3z M76.8,5.1
			c2.5,0,4.6,2.1,4.6,4.6s-2,4.6-4.6,4.6c-2.5,0-4.6-2.1-4.6-4.6S74.2,5.1,76.8,5.1z"/>
		<path class="st0" d="M20.8,80.7c-5.2,0-9.5,4.3-9.5,9.5c0,5.3,4.3,9.5,9.5,9.5s9.5-4.3,9.5-9.5C30.3,85,26,80.7,20.8,80.7z
			 M20.8,94.9c-2.5,0-4.6-2.1-4.6-4.6c0-2.5,2-4.6,4.6-4.6s4.6,2.1,4.6,4.6C25.4,92.8,23.3,94.9,20.8,94.9z"/>
		<path class="st0" d="M44.3,42.4c0.5,0.5,1.1,0.7,1.7,0.7c0.6,0,1.2-0.2,1.7-0.7c1-1,1-2.5,0-3.5l-5.1-5.1l5.1-5.1c1-1,1-2.5,0-3.5
			c-1-1-2.5-1-3.5,0l-5.1,5.1L34,25.3c-1-1-2.5-1-3.5,0s-1,2.5,0,3.5l5.1,5.1L30.6,39c-1,1-1,2.5,0,3.5c0.5,0.5,1.1,0.7,1.7,0.7
			s1.2-0.2,1.7-0.7l5.1-5.1L44.3,42.4z"/>
		<path class="st0" d="M85.3,64.6c-1-1-2.5-1-3.5,0l-5.1,5.1l-5.1-5.1c-1-1-2.5-1-3.5,0c-1,1-1,2.5,0,3.5l5.1,5.1l-5.1,5.1
			c-1,1-1,2.5,0,3.5c0.5,0.5,1.1,0.7,1.7,0.7c0.6,0,1.2-0.2,1.7-0.7l5.1-5.1l5.1,5.1c0.5,0.5,1.1,0.7,1.7,0.7s1.2-0.2,1.7-0.7
			c1-1,1-2.5,0-3.5l-5.1-5.1l5.1-5.1C86.3,67.1,86.3,65.6,85.3,64.6z"/>
		<path class="st0" d="M56.3,77.3c-1-1-2.5-1-3.5,0l-5.1,5.1l-5.1-5.1c-1-1-2.5-1-3.5,0c-1,1-1,2.5,0,3.5l5.1,5.1L39.1,91
			c-1,1-1,2.5,0,3.5c0.5,0.5,1.1,0.7,1.7,0.7s1.2-0.2,1.7-0.7l5.1-5.1l5.1,5.1c0.5,0.5,1.1,0.7,1.7,0.7c0.6,0,1.2-0.2,1.7-0.7
			c1-1,1-2.5,0-3.5l-5.1-5.1l5.1-5.1C57.2,79.8,57.2,78.3,56.3,77.3z"/>
		<path class="st0" d="M40.4,58.8c1.3,0,2.5-1.1,2.5-2.5c0-1.3-1.1-2.5-2.5-2.5s-2.5,1.1-2.5,2.5C37.9,57.7,39,58.8,40.4,58.8z"/>
		<path class="st0" d="M22.2,66.1c0.4,0.3,0.9,0.4,1.3,0.4c0.8,0,1.6-0.4,2-1.1c0.7-1.1,0.4-2.7-0.7-3.4c-1.1-0.7-2.7-0.4-3.4,0.7
			C20.7,63.8,21.1,65.3,22.2,66.1z"/>
		<path class="st0" d="M29.9,55.6c-1.2,0.6-1.8,2-1.2,3.2c0.4,0.9,1.3,1.5,2.2,1.5c0.3,0,0.7-0.1,1-0.2c1.2-0.6,1.8-2,1.2-3.2
			C32.5,55.6,31.1,55,29.9,55.6z"/>
		<circle class="st0" cx="50.1" cy="56.4" r="2.5"/>
		<path class="st0" d="M20.8,75.7c0.7,0,1.3-0.3,1.7-0.7c0.4-0.4,0.7-1.1,0.7-1.7s-0.3-1.3-0.7-1.7c-0.4-0.4-1.1-0.7-1.7-0.7
			s-1.3,0.3-1.7,0.7c-0.4,0.4-0.7,1.1-0.7,1.7s0.3,1.3,0.7,1.7C19.5,75.4,20.2,75.7,20.8,75.7z"/>
		<path class="st0" d="M88,35l-9.5-9.5c-1-1-2.5-1-3.5,0L65.5,35c-1,1-1,2.5,0,3.5c1,1,2.5,1,3.5,0l5.3-5.3v6.3
			c0,7.9-6.5,14.4-14.5,14.4c-1.3,0-2.5,1.1-2.5,2.5c0,1.3,1.1,2.5,2.5,2.5c10.7,0,19.4-8.6,19.4-19.3v-6.4l5.3,5.3
			c0.5,0.5,1.1,0.7,1.7,0.7c0.6,0,1.2-0.2,1.7-0.7C88.9,37.5,88.9,36,88,35z"/>
	</g>
</g>
</svg>
