<?xml version="1.0" encoding="UTF-8"?>
<!DOCTYPE svg PUBLIC "-//W3C//DTD SVG 1.1//EN" "http://www.w3.org/Graphics/SVG/1.1/DTD/svg11.dtd">
<!-- Creator: CorelDRAW X5 -->
<svg xmlns="http://www.w3.org/2000/svg" xml:space="preserve" width="2048px" height="2048px" style="shape-rendering:geometricPrecision; text-rendering:geometricPrecision; image-rendering:optimizeQuality; fill-rule:evenodd; clip-rule:evenodd"
viewBox="0 0 2048 2048"
 xmlns:xlink="http://www.w3.org/1999/xlink">
 <defs>
  <style type="text/css">
   <![CDATA[
    .fil2 {fill:none}
    .fil0 {fill: #344233}
    .fil1 {fill: #344233;fill-rule:nonzero}
   ]]>
  </style>
 </defs>
 <g id="Layer_x0020_1">
  <metadata id="CorelCorpID_0Corel-Layer"/>
  <path class="fil0" d="M1024 320c187,0 365,74 498,206 132,132 206,310 206,498 0,187 -74,365 -206,498 -132,132 -310,206 -498,206 -187,0 -365,-74 -498,-206 -132,-132 -206,-310 -206,-498 0,-187 74,-365 206,-498 132,-132 310,-206 498,-206zm407 297c-108,-108 -254,-169 -407,-169 -153,0 -299,60 -407,169 -108,108 -169,254 -169,407 0,153 60,299 169,407 108,108 254,169 407,169 153,0 299,-60 407,-169 108,-108 169,-254 169,-407 0,-153 -60,-299 -169,-407z"/>
  <path class="fil1" d="M1159 549c84,22 158,66 217,126 59,59 102,134 124,218l-62 16c-19,-73 -56,-138 -107,-189 -51,-52 -116,-90 -188,-109l16 -62z"/>
  <path class="fil1" d="M1143 1437c73,-19 137,-58 188,-109 51,-52 89,-116 107,-189l62 16c-22,84 -65,159 -124,218 -59,59 -133,104 -217,126l-16 -62z"/>
  <path class="fil1" d="M905 611c-73,19 -137,58 -188,109 -51,52 -89,116 -107,189l-62 -16c22,-84 65,-159 124,-218 59,-59 133,-104 217,-126l16 62z"/>
  <path class="fil1" d="M889 1499c-84,-22 -158,-66 -217,-126 -59,-59 -102,-134 -124,-218l62 -16c19,73 56,138 107,189 51,52 116,90 188,109l-16 62z"/>
  <polygon class="fil1" points="1056,256 1056,1792 992,1792 992,256 "/>
  <polygon class="fil1" points="256,992 1792,992 1792,1056 256,1056 "/>
  <path class="fil0" d="M384 384l0 251 -128 0 0 -379 379 0 0 128 -251 0zm1280 0l-251 0 0 -128 379 0 0 379 -128 0 0 -251zm0 1280l0 -251 128 0 0 379 -379 0 0 -128 251 0zm-1280 0l251 0 0 128 -379 0 0 -379 128 0 0 251z"/>
  <rect class="fil2" width="2048" height="2048"/>
 </g>
</svg>
