<?xml version="1.0" encoding="UTF-8"?>
<!DOCTYPE svg PUBLIC "-//W3C//DTD SVG 1.1//EN" "http://www.w3.org/Graphics/SVG/1.1/DTD/svg11.dtd">
<!-- Creator: CorelDRAW X5 -->
<svg xmlns="http://www.w3.org/2000/svg" xml:space="preserve" width="2048px" height="2048px" style="shape-rendering:geometricPrecision; text-rendering:geometricPrecision; image-rendering:optimizeQuality; fill-rule:evenodd; clip-rule:evenodd"
viewBox="0 0 2048 2048"
 xmlns:xlink="http://www.w3.org/1999/xlink">
 <defs>
  <style type="text/css">
   <![CDATA[
    .fil2 {fill:none}
    .fil1 {fill:#fff}
    .fil0 {fill:#fff;fill-rule:nonzero}
   ]]>
  </style>
 </defs>
 <g id="Layer_x0020_1">
  <metadata id="CorelCorpID_0Corel-Layer"/>
  <polygon class="fil0" points="432,1344 432,1504 1648,1504 1648,1344 "/>
  <polygon class="fil0" points="368,1536 368,1312 368,1280 400,1280 1680,1280 1712,1280 1712,1312 1712,1536 1712,1568 1680,1568 400,1568 368,1568 "/>
  <polygon class="fil0" points="432,992 432,1152 1648,1152 1648,992 "/>
  <polygon class="fil0" points="368,1184 368,960 368,928 400,928 1680,928 1712,928 1712,960 1712,1184 1712,1216 1680,1216 400,1216 368,1216 "/>
  <path class="fil0" d="M384 1105c-45,0 -86,-10 -116,-25 -37,-19 -60,-47 -60,-81l0 -208c0,-33 23,-62 60,-81 30,-16 72,-25 116,-25l0 64c-35,0 -65,7 -87,18 -15,8 -25,17 -25,24l0 208c0,7 10,16 25,24 22,11 53,18 87,18l0 64z"/>
  <path class="fil0" d="M1664 1394c35,0 65,-7 87,-18 15,-8 25,-17 25,-24l0 -208c0,-7 -10,-16 -25,-24 -22,-11 -53,-18 -87,-18l0 -64c45,0 86,10 116,25 37,19 60,47 60,81l0 208c0,33 -23,62 -60,81 -30,16 -72,25 -116,25l0 -64z"/>
  <polygon class="fil0" points="624,543 624,1600 560,1600 560,543 "/>
  <polygon class="fil0" points="1520,543 1520,1600 1456,1600 1456,543 "/>
  <path class="fil0" d="M720 416l640 0 32 0 0 32 0 288 0 32 -32 0 -640 0 -32 0 0 -32 0 -288 0 -32 32 0zm608 64l-576 0 0 224 576 0 0 -224z"/>
  <path class="fil0" d="M863 671l31 0 0 -160 -63 10 0 21 32 0 0 128zm58 -107l30 0 0 -25 84 0 0 21 -103 68c0,0 -1,1 -3,2 -1,1 -3,2 -4,3 -2,1 -3,3 -5,4 -2,1 -3,3 -4,4 -2,3 -3,5 -3,8 0,3 -1,5 -1,7l0 14 124 0c6,0 10,0 14,-1 4,-1 6,-1 8,-2 2,-1 3,-2 4,-3 2,-2 4,-5 5,-8 1,-3 2,-6 2,-9 0,-3 0,-5 0,-7l0 -13 -27 0 0 15 -86 0 86 -56c4,-3 8,-5 10,-7 2,-2 4,-4 5,-5 2,-3 3,-6 4,-10 1,-3 1,-7 1,-10l0 -10c0,-2 0,-4 0,-7 0,-3 -1,-6 -2,-9 -1,-3 -3,-6 -5,-8 -1,-1 -2,-2 -4,-3 -2,-1 -5,-2 -8,-2 -4,-1 -8,-1 -14,-1l-76 0c-6,0 -10,0 -14,1 -4,1 -6,1 -8,2 -2,1 -3,2 -4,3 -2,2 -4,5 -5,8 -1,3 -2,6 -2,9 0,3 0,5 0,7l0 21zm295 107c3,0 5,0 8,-1 3,-1 6,-1 9,-3 3,-1 5,-3 7,-5 2,-2 4,-5 5,-7 1,-3 2,-5 2,-8 0,-3 0,-5 0,-7l0 -20c0,-2 0,-5 -1,-8 -1,-3 -2,-6 -3,-9 -2,-3 -4,-6 -7,-8 -2,-1 -4,-3 -7,-4 -3,-1 -5,-2 -8,-3 -3,-1 -6,-1 -9,-1 3,0 5,-1 8,-2 3,-1 6,-2 9,-4 3,-2 5,-3 7,-5 2,-2 3,-4 3,-7 1,-2 1,-5 1,-7 0,-2 0,-4 0,-6l0 -15c0,-3 0,-5 0,-8 0,-3 -1,-6 -2,-8 -1,-3 -3,-5 -5,-7 -1,-1 -2,-2 -4,-3 -2,-1 -5,-2 -8,-2 -4,-1 -8,-1 -14,-1l-84 0c-2,0 -4,0 -7,0 -3,0 -6,1 -8,2 -3,1 -5,2 -7,4 -2,2 -4,4 -5,7 -1,3 -2,5 -2,8 0,3 0,5 0,8l0 12 29 0 0 -14 75 0c1,0 2,0 3,0 1,0 2,0 4,1 1,0 2,1 3,2 1,1 1,2 2,3 0,1 1,2 1,4 0,1 0,2 0,3l0 12c0,1 0,1 0,2 0,1 0,2 -1,3 0,1 -1,2 -2,3 -1,1 -2,2 -4,2 -2,0 -3,1 -5,1l-46 0 0 26 51 0c2,0 3,0 5,1 2,0 3,1 5,2 1,1 2,2 2,3 0,1 1,3 1,4 0,1 0,2 0,3l0 15c0,2 0,4 -1,5 0,2 -1,3 -2,4 -1,1 -2,2 -3,2 -1,0 -2,1 -4,1 -1,0 -2,0 -3,0l-81 0 0 -15 -30 0 0 14c0,2 0,5 0,8 0,3 1,6 2,8 1,3 2,5 4,7 2,2 5,4 8,5 3,1 6,2 10,2 3,0 6,0 9,0l91 0z"/>
  <polygon class="fil1" points="1376,638 1376,736 1376,744 1360,744 720,744 704,744 704,736 704,638 708,638 708,574 400,574 368,574 368,606 368,830 368,862 400,862 1680,862 1712,862 1712,830 1712,606 1712,574 1680,574 1364,574 1364,638 "/>
  <rect class="fil2" width="2048" height="2048"/>
 </g>
</svg>
